<svg xmlns="http://www.w3.org/2000/svg" viewBox="0 0 512 512">
  <!-- Solid blue rounded-square background to match the popup theme. -->
  <rect width="512" height="512" rx="96" ry="96" fill="#1d4ed8"/>
  <!-- FontAwesome "rocket" glyph, centered and scaled. -->
  <g transform="translate(96 96) scale(0.625)" fill="#ffffff">
    <path d="M505.12 19.09c-1.79-8.09-8.16-14.46-16.24-16.24C428.31-10.63 302.11 5.31 233.13 74.29c-13.79 13.78-25.87 28.85-36.31 44.75-35.16-4.52-70.44 4.16-97.75 25.63C31.24 197.492 3.192 302.859.1 315.09c-1.36 5.383 2.75 10.723 8.32 10.879 8.86.242 32.53 1.586 65.98 3.578-6.12 8.129-10.35 15.109-12.83 20.019a15.994 15.994 0 0 0 3 18.359l72.02 72.031c4.938 4.94 12.484 6.086 18.36 3.001 4.92-2.481 11.88-6.746 19.98-12.821 1.99 33.395 3.34 57.098 3.58 65.977.15 5.594 5.5 9.702 10.88 8.331 12.24-3.086 117.62-31.144 170.47-98.984 21.46-27.297 30.13-62.581 25.63-97.782 15.9-10.446 30.97-22.515 44.75-36.305 69.32-69.006 84.79-195.023 76.9-252.283zM368 224.001c-26.5 0-48-21.501-48-48 0-26.503 21.5-48 48-48s48 21.497 48 48c0 26.499-21.5 48-48 48z"/>
  </g>
</svg>
